PathFileType	4	(X/Y/Z)	c:\Git\powerlifing_model_clean\simulations\HC835B\Session1\HC835B_OGW_0001\marker_experimental.trc
DataRate	CameraRate	NumFrames	NumMarkers	Units	OrigDataRate	OrigDataStartFrame	OrigNumFrames
240.000000	240.000000	4	38	mm	240.000000	162	433
Frame#	Time	RPSI			LPSI			RASI			LASI			RTH1			RTH2			RTH3			RTH4			RSK1			RSK2			RSK3			RSK4			RCAL1			RCAL2			RCAL3			RST			RPT			RTN			RFMB			RSMB			RVMB			RFMH			RSMH			RVMH			RPM			LTH1			LTH2			LTH3			LTH4			LSK1			LSK2			LSK3			LSK4			LCAL1			LCAL2			LCAL3			LFMH			LVMH			
		X1	Y1	Z1	X2	Y2	Z2	X3	Y3	Z3	X4	Y4	Z4	X5	Y5	Z5	X6	Y6	Z6	X7	Y7	Z7	X8	Y8	Z8	X9	Y9	Z9	X10	Y10	Z10	X11	Y11	Z11	X12	Y12	Z12	X13	Y13	Z13	X14	Y14	Z14	X15	Y15	Z15	X16	Y16	Z16	X17	Y17	Z17	X18	Y18	Z18	X19	Y19	Z19	X20	Y20	Z20	X21	Y21	Z21	X22	Y22	Z22	X23	Y23	Z23	X24	Y24	Z24	X25	Y25	Z25	X26	Y26	Z26	X27	Y27	Z27	X28	Y28	Z28	X29	Y29	Z29	X30	Y30	Z30	X31	Y31	Z31	X32	Y32	Z32	X33	Y33	Z33	X34	Y34	Z34	X35	Y35	Z35	X36	Y36	Z36	X37	Y37	Z37	X38	Y38	Z38	

163	0.675	485.5379943847657	1089.0537109375	-1354.438110351563	594.2748413085939	1087.121459960938	-1348.053466796875	404.6211242675782	1040.868774414063	-1154.062866210938	645.3790893554689	1044.801635742188	-1130.7177734375	339.1108703613282	773.001159667969	-1274.15283203125	342.9190673828126	754.0350341796876	-1216.52783203125	343.5549011230469	689.5596923828126	-1260.748046875	357.1748657226563	670.5975341796876	-1206.984741210938	410.3734130859376	372.0505371093751	-1548.073120117188	396.5930480957032	319.2682800292969	-1518.61669921875	414.3745727539064	320.9077453613282	-1577.215209960938	413.1106262207032	269.7665710449219	-1545.506713867188	483.4215698242189	265.2298889160157	-1700.479248046875	524.1092529296876	243.9902954101563	-1718.289428710938	462.9706115722657	239.2501983642579	-1736.039184570313	529.4369506835939	195.3973083496094	-1666.445190429688	434.4660034179689	191.6996765136719	-1702.975830078125	506.1056213378907	159.1504058837891	-1625.305541992188	508.0216674804689	123.1079406738282	-1624.318603515625	454.8370361328126	119.3308639526367	-1612.662353515625	431.3094177246095	138.1692199707032	-1704.389526367188	523.6151733398439	66.10478973388673	-1623.5234375	465.6053771972657	56.09116744995119	-1611.321899414063	417.594207763672	68.53555297851564	-1674.19140625	479.9025878906251	25.93192100524903	-1580.051391601563	714.8342285156251	779.2505493164065	-1122.974487304688	710.3834838867189	792.2957763671877	-1063.889770507813	703.6054687500001	711.7731323242189	-1071.292236328125	682.8622436523439	726.1632080078126	-1015.613037109375	659.4019165039064	273.1807556152344	-1022.845397949219	655.8393554687501	263.7104797363282	-970.1311035156252	651.7115478515626	222.4806060791016	-999.1055908203127	632.5305175781251	216.1665191650391	-945.4772949218752	586.8950805664064	84.22129821777345	-1045.169067382813	617.1474609375001	46.98531341552735	-1041.865234375	558.7558593750001	44.9641227722168	-1039.272705078125	550.6897583007814	66.46699523925783	-818.0550537109377	656.7864990234376	38.55349349975587	-851.456726074219	
164	0.6791666666666667	485.5071411132814	1089.052368164063	-1347.404296875	594.4711914062501	1087.82958984375	-1340.306030273438	405.4115295410157	1041.270263671875	-1146.771118164063	645.8903808593751	1045.5556640625	-1123.226318359375	338.8267211914063	772.007507324219	-1264.185913085938	341.8861389160157	754.0314941406251	-1206.151611328125	342.4033508300782	688.6673583984376	-1249.537231445313	355.6524353027344	670.5269165039064	-1195.40576171875	408.8367004394532	374.8429870605469	-1535.718139648438	395.2113342285157	321.8100891113282	-1506.822265625	412.802947998047	324.2538757324219	-1565.589477539063	411.7400207519532	272.6243591308594	-1534.50390625	481.909393310547	271.7992248535157	-1687.953735351563	522.7753906250001	251.5738677978516	-1706.476806640625	461.7229003906251	247.1305084228516	-1724.657104492188	528.1814575195314	200.9650115966797	-1656.5478515625	433.4184875488282	198.1353759765626	-1693.580078125	504.8528442382814	163.1226654052735	-1616.809204101563	506.7910461425782	126.9818572998047	-1616.881103515625	453.601531982422	122.7827453613282	-1605.628173828125	430.410614013672	145.1257019042969	-1696.584716796875	522.2811279296876	69.70529174804689	-1617.98974609375	464.469451904297	58.28005599975587	-1607.075927734375	417.1341857910157	73.80101013183595	-1669.20068359375	478.9311523437501	25.00922584533692	-1577.338256835938	715.4616699218751	780.6411743164065	-1115.20166015625	710.7103271484376	793.5876464843752	-1056.11328125	704.0340576171876	712.9874877929689	-1063.612060546875	683.1751708984376	727.5668334960939	-1007.898254394531	659.2111206054689	273.8776245117188	-1019.826416015625	655.5443725585939	263.7683715820313	-967.252868652344	651.4664916992189	222.8533325195313	-996.6970214843752	632.1668701171876	216.0123138427735	-943.249694824219	586.7385864257814	84.32517242431642	-1044.787109375	617.1182861328126	47.1864356994629	-1041.693359375	558.6156616210939	45.03428649902344	-1039.075927734375	551.0824584960939	65.80533599853517	-817.617370605469	657.0346679687501	38.22850418090821	-851.3860473632815	
165	0.6833333333333333	485.4893798828126	1089.071533203125	-1340.4765625	594.6427612304689	1088.60986328125	-1332.9052734375	406.1795349121095	1041.451782226563	-1139.989013671875	646.5041503906251	1046.423706054688	-1115.831176757813	337.7905883789063	771.330993652344	-1254.051513671875	340.8644714355469	754.0838012695314	-1195.933227539063	341.2555847167969	688.0680541992189	-1238.131713867188	354.1729125976563	670.6646118164064	-1183.713134765625	407.3014221191407	377.5092773437501	-1523.070068359375	393.8821105957032	324.2703552246094	-1494.887939453125	411.2070617675782	327.4646911621094	-1553.523681640625	410.318817138672	275.2128295898438	-1523.123657226563	480.527069091797	278.1130676269532	-1675.025512695313	521.6220092773439	258.7668457031251	-1693.96337890625	460.7392578125001	254.8211975097657	-1712.848022460938	527.0050659179689	206.3663177490235	-1645.916381835938	432.5367431640626	204.4946899414063	-1683.765747070313	503.5850219726564	166.9877471923828	-1607.794677734375	505.4878234863282	130.8798065185547	-1608.97900390625	452.2224731445314	126.3022384643555	-1598.183837890625	429.6304321289064	152.0118560791016	-1688.44091796875	520.7239990234376	73.26158142089845	-1611.931518554688	463.1590881347657	60.73107147216798	-1602.578979492188	416.8676757812501	79.1342239379883	-1663.689453125	477.6592407226564	24.11218452453614	-1574.54931640625	715.8395385742189	781.8257446289065	-1107.767333984375	710.7298583984376	794.634460449219	-1048.705200195313	704.4083862304689	714.0267333984376	-1056.42431640625	683.2475585937501	728.2885742187501	-1000.685974121094	659.1462402343751	274.5858154296876	-1017.088745117188	655.4614257812501	263.8088989257813	-964.6528930664065	651.4237060546876	223.3103027343751	-994.5623168945315	631.9881591796876	215.7419891357422	-941.210876464844	586.7681884765626	84.45081329345705	-1044.5771484375	617.1214599609376	47.31331634521485	-1041.575439453125	558.6391601562501	45.1408805847168	-1038.966430664063	551.3190917968751	65.0199661254883	-817.3296508789065	657.3201904296876	38.00502395629884	-851.2774047851565	
166	0.6875	485.4075622558595	1089.11767578125	-1333.83740234375	594.8096923828126	1089.431396484375	-1325.6767578125	406.948455810547	1041.763793945313	-1132.890747070313	647.1221313476564	1047.40966796875	-1108.445190429688	337.4476013183594	770.4880371093752	-1244.213989257813	339.7594299316407	754.2760620117189	-1185.609619140625	340.0187988281251	687.6519165039064	-1226.845825195313	352.6517944335938	671.0628662109376	-1172.011352539063	405.6528320312501	380.2866516113282	-1510.218872070313	392.5754394531251	326.4786376953126	-1482.756469726563	409.7400817871095	330.5672607421876	-1541.358642578125	409.3378295898439	278.1506958007813	-1511.757202148438	479.2957763671876	284.1278076171876	-1661.796264648438	520.7299804687501	265.7687988281251	-1681.029418945313	460.0427856445314	262.1840515136719	-1700.623168945313	525.8375854492189	211.5269622802735	-1634.73291015625	431.7142028808595	210.8681793212891	-1673.450317382813	502.2567749023439	170.7878570556641	-1597.968139648438	504.1952209472657	134.7798919677735	-1600.67529296875	450.8338623046876	129.7297515869141	-1590.683471679688	429.403289794922	158.1587982177735	-1680.29541015625	519.0169067382814	77.11007690429689	-1604.837036132813	461.9171142578126	63.94978713989259	-1597.494873046875	416.6906738281251	84.2400588989258	-1657.984985351563	475.8836669921876	22.95529365539551	-1571.706298828125	716.1250000000001	782.7749633789065	-1100.701782226563	710.8541870117189	795.3220825195315	-1041.6103515625	704.6664428710939	714.8172607421876	-1049.626708984375	683.2294311523439	728.8290405273439	-994.0057373046877	659.0624389648439	275.1736450195313	-1014.684875488281	655.5299072265626	263.7478027343751	-962.3081665039065	651.4412231445314	223.5953216552735	-992.7676391601565	632.0109863281251	215.3874816894532	-939.4978637695315	586.8405761718751	84.57293701171876	-1044.396850585938	617.1954956054689	47.4269142150879	-1041.457885742188	558.7163085937501	45.22177886962891	-1038.884033203125	551.2308959960939	64.33248901367189	-817.141784667969	657.4356689453126	37.9160385131836	-851.1475219726565	
